<?xml version="1.0" encoding="iso-8859-1"?>
<!-- Generator: Adobe Illustrator 19.0.0, SVG Export Plug-In . SVG Version: 6.00 Build 0)  -->
<svg version="1.1" id="Layer_1" xmlns="http://www.w3.org/2000/svg" xmlns:xlink="http://www.w3.org/1999/xlink" x="0px" y="0px"
	 viewBox="0 0 496 496" style="enable-background:new 0 0 496 496;" xml:space="preserve">
<g>
	<g>
		<g>
			<path d="M248,32c-70.576,0-128,57.424-128,128s57.424,128,128,128s128-57.424,128-128S318.576,32,248,32z M248,272
				c-61.76,0-112-50.24-112-112S186.24,48,248,48s112,50.24,112,112S309.76,272,248,272z"/>
			<path d="M440,235.36v-54.72l51.968-29.696l-7.936-13.888l-52.28,29.872l-24.008-12c-0.832-26.224-7.88-50.888-19.904-72.48
				l48.128-27.504l-7.936-13.888L379.344,68.88C350.416,27.312,302.368,0,248,0C159.776,0,88,71.776,88,160
				c0,6.256,0.456,12.408,1.152,18.48l-24.904,12.456L16,163.36V120H0v52.64l56,32v64l63.752,36.432L153,288.448
				c16.264,12.064,34.848,21.072,55,26.288V328h-16v16h16v112c0,22.056,17.944,40,40,40c22.056,0,40-17.944,40-40v-97.872l24,14.4
				V384h16v-11.36l48-27.432l56,32l64-36.568v-73.28L440,235.36z M120.248,286.928L72,259.36v-54.416l19.968-9.984
				c7.208,32.192,24.16,60.664,47.568,82.328L120.248,286.928z M272,456c0,13.232-10.768,24-24,24s-24-10.768-24-24V344h48V456z
				 M272,328h-48v-10c7.848,1.192,15.824,2,24,2c8.176,0,16.152-0.808,24-2V328z M248,304c-79.4,0-144-64.6-144-144S168.6,16,248,16
				s144,64.6,144,144S327.4,304,248,304z M368,331.36l-47.896,27.368L295.552,344H304v-16h-16v-13.264
				c27.912-7.224,52.96-21.64,72.8-41.392l7.2,3.6V331.36z M375.752,262.928l-3.816-1.904c20.008-24.504,32.8-55.032,35.424-88.4
				l16.64,8.32v54.416L375.752,262.928z M480,331.36l-48,27.432l-48-27.432v-54.72l48-27.432l48,27.432V331.36z"/>
			<rect x="448" y="280" width="16" height="16"/>
			<rect x="448" y="312" width="16" height="16"/>
			<rect x="480" y="400" width="16" height="16"/>
			<rect x="464" y="384" width="16" height="16"/>
			<rect x="448" y="400" width="16" height="16"/>
			<rect x="464" y="416" width="16" height="16"/>
			<rect x="472" y="80" width="16" height="16"/>
			<rect x="456" y="64" width="16" height="16"/>
			<rect x="440" y="80" width="16" height="16"/>
			<rect x="456" y="96" width="16" height="16"/>
			<rect x="80" y="64" width="16" height="16"/>
			<rect x="64" y="48" width="16" height="16"/>
			<rect x="48" y="64" width="16" height="16"/>
			<rect x="64" y="80" width="16" height="16"/>
			<path d="M320,162.424c0-2.288-0.384-4.48-0.936-6.6l15.592-23.384l-13.312-8.872l-11.904,17.856
				c-4.432-3.36-9.888-5.424-15.864-5.424c-1.896,0-3.752,0.272-5.576,0.664V120h-16v24.6c-5.04,2.752-10.424,4.704-16,5.848V128
				h-16v23.528c-7.448-0.496-14.792-2.288-21.56-5.56l5.144-15.432l-15.168-5.064l-4.168,12.496
				c-3.112-1.256-6.424-1.968-9.824-1.968c-3.584,0-7,0.728-10.12,2.032l-9.648-14.472l-13.312,8.872l10.712,16.072
				c-2.528,4.056-4.056,8.8-4.056,13.92c0,3.992,0.792,7.896,2.208,11.528l-21.784,10.888l7.16,14.312l24.12-12.056
				c1.2,1,2.464,1.928,3.816,2.744l4.352,2.608c0.528,0.32,1.08,0.584,1.608,0.896l-12.144,18.216l13.312,8.872l13.392-20.08
				c5.928,2.336,12.024,4.192,18.264,5.456l-6.064,24.248l15.512,3.872l6.536-26.128c1.904,0.104,3.8,0.2,5.712,0.2
				c1.336,0,2.664-0.088,4-0.136V232h16v-25.896c3.592-0.672,7.144-1.512,10.648-2.536l5.592,22.376l15.512-3.872l-6.04-24.168
				c3.552-1.64,7.04-3.416,10.408-5.44l4.352-2.608c0.424-0.256,0.8-0.568,1.216-0.84l16.656,16.656l11.312-11.312l-17.288-17.288
				C318.68,172.576,320,167.584,320,162.424z M296.24,176.128l-4.352,2.608c-28.92,17.36-66.856,17.36-95.784,0l-4.352-2.608
				C186.976,173.248,184,168,184,162.424c0-5.752,4.672-10.424,10.424-10.424c2.064,0,4.064,0.6,5.776,1.752l2.72,1.816
				c24.408,16.264,57.752,16.264,82.16,0l2.72-1.816c1.712-1.152,3.712-1.752,5.776-1.752c5.752,0,10.424,4.672,10.424,10.424
				C304,168,301.024,173.256,296.24,176.128z"/>
			<path d="M240,120c17.648,0,32-14.352,32-32s-14.352-32-32-32s-32,14.352-32,32S222.352,120,240,120z M240,72
				c8.824,0,16,7.176,16,16s-7.176,16-16,16c-8.824,0-16-7.176-16-16S231.176,72,240,72z"/>
		</g>
	</g>
</g>
<g>
</g>
<g>
</g>
<g>
</g>
<g>
</g>
<g>
</g>
<g>
</g>
<g>
</g>
<g>
</g>
<g>
</g>
<g>
</g>
<g>
</g>
<g>
</g>
<g>
</g>
<g>
</g>
<g>
</g>
</svg>
