<?xml version="1.0" encoding="iso-8859-1"?>
<!-- Generator: Adobe Illustrator 19.0.0, SVG Export Plug-In . SVG Version: 6.00 Build 0)  -->
<svg version="1.1" id="Layer_1" xmlns="http://www.w3.org/2000/svg" xmlns:xlink="http://www.w3.org/1999/xlink" x="0px" y="0px"
	 viewBox="0 0 486.4 486.4" style="enable-background:new 0 0 486.4 486.4;" xml:space="preserve">
<g>
	<g>
		<g>
			<path d="M485.127,237.286l-66.741-115.599c-1.697-2.939-4.833-4.75-8.227-4.75H276.676c-3.4,0-6.541,1.817-8.236,4.765
				l-64.013,111.352l-128.221,0.479c-3.381,0.013-6.501,1.822-8.191,4.75l-66.742,115.6c-1.697,2.939-1.697,6.561,0,9.5
				l66.741,115.599c1.697,2.939,4.833,4.75,8.227,4.75h133.483c3.398,0,6.537-1.815,8.233-4.759l64.118-111.359l128.119-0.478
				c3.382-0.013,6.501-1.822,8.192-4.75l66.741-115.599C486.825,243.847,486.825,240.225,485.127,237.286z M204.232,464.731H81.726
				L20.47,358.633l61.269-106.12l122.518-0.458l61.347,106.089L204.232,464.731z M404.662,348.156l-122.614,0.457l-61.152-106.085
				l61.276-106.591h122.501l61.256,106.099L404.662,348.156z"/>
			<path d="M46.363,210.978c1.85,2.628,4.791,4.034,7.778,4.034c1.889,0,3.797-0.562,5.458-1.732
				c4.291-3.019,5.321-8.945,2.302-13.236l-23.556-33.475c-3.019-4.29-8.945-5.322-13.236-2.302
				c-4.291,3.019-5.321,8.945-2.302,13.236L46.363,210.978z"/>
			<path d="M457.393,374.853c-3.019-4.29-8.946-5.322-13.236-2.302c-4.291,3.019-5.321,8.945-2.302,13.236l23.556,33.475
				c1.85,2.628,4.791,4.034,7.778,4.034c1.889,0,3.797-0.562,5.458-1.732c4.291-3.019,5.321-8.945,2.302-13.236L457.393,374.853z"/>
			<path d="M425.159,397.169c-3.019-4.29-8.945-5.322-13.236-2.302c-4.291,3.019-5.321,8.945-2.302,13.236l23.556,33.475
				c1.85,2.628,4.791,4.034,7.778,4.034c1.888,0,3.796-0.562,5.458-1.732c4.291-3.019,5.321-8.945,2.302-13.236L425.159,397.169z"/>
			<path d="M202.855,37.412c1.85,2.628,4.791,4.034,7.778,4.034c1.889,0,3.797-0.562,5.458-1.732
				c4.291-3.019,5.321-8.945,2.302-13.236L204.477,6.702c-3.019-4.29-8.946-5.322-13.236-2.302
				c-4.291,3.019-5.321,8.945-2.302,13.236L202.855,37.412z"/>
			<path d="M244.729,96.917c1.85,2.628,4.791,4.034,7.778,4.034c1.889,0,3.796-0.562,5.458-1.732
				c4.291-3.019,5.321-8.945,2.302-13.236L243.693,62.43c-3.019-4.29-8.945-5.323-13.236-2.302
				c-4.291,3.019-5.321,8.945-2.302,13.236L244.729,96.917z"/>
			<path d="M76.091,358.378c-2.532-4.595-8.31-6.267-12.905-3.736c-4.596,2.533-6.268,8.311-3.736,12.906l33.474,60.75
				c1.731,3.141,4.979,4.917,8.329,4.917c1.55,0,3.122-0.38,4.576-1.181c4.596-2.533,6.268-8.311,3.736-12.906L76.091,358.378z"/>
			<path d="M279.546,218.349c-4.549-2.612-10.356-1.043-12.969,3.507l-7.12,12.397c-2.613,4.55-1.043,10.357,3.507,12.97
				c1.491,0.857,3.117,1.264,4.722,1.264c3.29,0,6.49-1.713,8.247-4.771l7.12-12.397
				C285.666,226.769,284.096,220.962,279.546,218.349z"/>
			<path d="M308.21,171.327c-4.503-2.697-10.335-1.232-13.031,3.269l-8.165,13.636c-2.695,4.501-1.231,10.336,3.27,13.031
				c1.529,0.916,3.211,1.352,4.872,1.352c3.229,0,6.379-1.649,8.159-4.621l8.165-13.636
				C314.175,179.857,312.711,174.022,308.21,171.327z"/>
		</g>
	</g>
</g>
<g>
</g>
<g>
</g>
<g>
</g>
<g>
</g>
<g>
</g>
<g>
</g>
<g>
</g>
<g>
</g>
<g>
</g>
<g>
</g>
<g>
</g>
<g>
</g>
<g>
</g>
<g>
</g>
<g>
</g>
</svg>
