<?xml version="1.0" encoding="iso-8859-1"?>
<!-- Generator: Adobe Illustrator 19.0.0, SVG Export Plug-In . SVG Version: 6.00 Build 0)  -->
<svg version="1.1" id="Capa_1" xmlns="http://www.w3.org/2000/svg" xmlns:xlink="http://www.w3.org/1999/xlink" x="0px" y="0px"
	 viewBox="0 0 60 60" style="enable-background:new 0 0 60 60;" xml:space="preserve">
<g>
	<g>
		<circle cx="5" cy="5" r="1"/>
		<circle cx="55" cy="5" r="1"/>
		<circle cx="5" cy="55" r="1"/>
		<circle cx="11" cy="56" r="1"/>
		<circle cx="15" cy="56" r="1"/>
		<circle cx="19" cy="56" r="1"/>
		<circle cx="23" cy="56" r="1"/>
		<circle cx="38" cy="39" r="1"/>
		<circle cx="34" cy="39" r="1"/>
		<circle cx="36" cy="36" r="1"/>
		<circle cx="30" cy="39" r="1"/>
		<circle cx="26" cy="39" r="1"/>
		<circle cx="32" cy="36" r="1"/>
		<circle cx="28" cy="36" r="1"/>
		<circle cx="22" cy="39" r="1"/>
		<circle cx="24" cy="36" r="1"/>
		<circle cx="38" cy="33" r="1"/>
		<circle cx="34" cy="33" r="1"/>
		<circle cx="36" cy="30" r="1"/>
		<circle cx="30" cy="33" r="1"/>
		<circle cx="26" cy="33" r="1"/>
		<circle cx="32" cy="30" r="1"/>
		<circle cx="28" cy="30" r="1"/>
		<circle cx="22" cy="33" r="1"/>
		<circle cx="24" cy="30" r="1"/>
		<circle cx="38" cy="27" r="1"/>
		<circle cx="34" cy="27" r="1"/>
		<circle cx="36" cy="24" r="1"/>
		<circle cx="30" cy="27" r="1"/>
		<circle cx="26" cy="27" r="1"/>
		<circle cx="32" cy="24" r="1"/>
		<circle cx="28" cy="24" r="1"/>
		<circle cx="22" cy="27" r="1"/>
		<circle cx="24" cy="24" r="1"/>
		<circle cx="38" cy="21" r="1"/>
		<circle cx="34" cy="21" r="1"/>
		<circle cx="30" cy="21" r="1"/>
		<circle cx="26" cy="21" r="1"/>
		<circle cx="22" cy="21" r="1"/>
		<circle cx="55" cy="55" r="1"/>
		<path d="M51,25c0.552,0,1-0.447,1-1s-0.448-1-1-1h-2v-2h-4v-1.643C45,16.955,43.045,15,40.643,15H39v-4h-2V9c0-0.553-0.448-1-1-1
			s-1,0.447-1,1v2h-2V9c0-0.553-0.448-1-1-1s-1,0.447-1,1v2h-2V9c0-0.553-0.448-1-1-1s-1,0.447-1,1v2h-2V9c0-0.553-0.448-1-1-1
			s-1,0.447-1,1v2h-2v4h-1.643C16.955,15,15,16.955,15,19.357V21h-4v2H9c-0.552,0-1,0.447-1,1s0.448,1,1,1h2v2H9
			c-0.552,0-1,0.447-1,1s0.448,1,1,1h2v2H9c-0.552,0-1,0.447-1,1c0,0.553,0.448,1,1,1h2v2H9c-0.552,0-1,0.447-1,1s0.448,1,1,1h2v2h4
			v1.643C15,43.045,16.955,45,19.357,45H21v4h2v2c0,0.553,0.448,1,1,1s1-0.447,1-1v-2h2v2c0,0.553,0.448,1,1,1s1-0.447,1-1v-2h2v2
			c0,0.553,0.448,1,1,1c0.552,0,1-0.447,1-1v-2h2v2c0,0.553,0.448,1,1,1s1-0.447,1-1v-2h2v-4h1.643C43.045,45,45,43.045,45,40.643
			V39h4v-2h2c0.552,0,1-0.447,1-1s-0.448-1-1-1h-2v-2h2c0.552,0,1-0.447,1-1s-0.448-1-1-1h-2v-2h2c0.552,0,1-0.447,1-1s-0.448-1-1-1
			h-2v-2H51z M15,37h-2V23h2V37z M23,13h14v2H23V13z M37,47H23v-2h14V47z M43,21v18v1.643c0,1.3-1.058,2.357-2.357,2.357H39H21
			h-1.643C18.058,43,17,41.942,17,40.643V39V21v-1.643c0-1.3,1.058-2.357,2.357-2.357H21h18h1.643c1.3,0,2.357,1.058,2.357,2.357V21
			z M47,37h-2V23h2V37z"/>
		<circle cx="4" cy="37" r="1"/>
		<circle cx="4" cy="41" r="1"/>
		<circle cx="4" cy="45" r="1"/>
		<circle cx="4" cy="49" r="1"/>
		<path d="M54.501,0H46v1c0,1.654-1.346,3-3,3s-3-1.346-3-3V0H5.499C2.467,0,0,2.467,0,5.499V12h4v2H0v40.501
			C0,57.533,2.467,60,5.499,60H40v-1c0-1.654,1.346-3,3-3s3,1.346,3,3v1h8.501C57.533,60,60,57.533,60,54.501V5.499
			C60,2.467,57.533,0,54.501,0z M58,17h-2c-0.552,0-1,0.447-1,1s0.448,1,1,1h2v1h-2c-0.552,0-1,0.447-1,1s0.448,1,1,1h2v1h-2
			c-0.552,0-1,0.447-1,1s0.448,1,1,1h2v1h-2c-0.552,0-1,0.447-1,1s0.448,1,1,1h2v1h-2c-0.552,0-1,0.447-1,1s0.448,1,1,1h2v1h-2
			c-0.552,0-1,0.447-1,1s0.448,1,1,1h2v1h-2c-0.552,0-1,0.447-1,1s0.448,1,1,1h2v1h-2c-0.552,0-1,0.447-1,1s0.448,1,1,1h2v1h-2
			c-0.552,0-1,0.447-1,1s0.448,1,1,1h2v11.501C58,56.431,56.431,58,54.501,58h-6.602c-0.464-2.279-2.485-4-4.899-4
			s-4.435,1.721-4.899,4H5.499C3.569,58,2,56.431,2,54.501V16h4v-6H2V5.499C2,3.569,3.569,2,5.499,2h32.602
			C38.565,4.279,40.585,6,43,6s4.435-1.721,4.899-4h6.602C56.431,2,58,3.569,58,5.499V17z"/>
	</g>
</g>
<g>
</g>
<g>
</g>
<g>
</g>
<g>
</g>
<g>
</g>
<g>
</g>
<g>
</g>
<g>
</g>
<g>
</g>
<g>
</g>
<g>
</g>
<g>
</g>
<g>
</g>
<g>
</g>
<g>
</g>
</svg>
