<svg viewBox="0 0 500 500" xmlns="http://www.w3.org/2000/svg">  
<path transform="rotate(5.34353 260.283 258.883)" stroke=" rgb(0, 0, 0)" stroke-width="0" id="svg_1" fill=" rgb(0, 0, 0)" d="m80.77371,515.48049c-6.59028,5.81528 -24.55467,-4.57299 -23.00677,-13.11739c0.93241,-5.14522 14.74515,-15.46828 24.23775,-25.49625c16.05453,-16.95837 28.85145,-35.26174 43.01446,-58.21147c12.56006,-20.35266 23.08183,-38.85166 34.08731,-60.04718c5.81966,-11.20994 14.6384,-24.64849 16.57161,-37.07627c2.38524,-15.3297 -2.6688,-31.19578 -7.66948,-45.91086c-5.67621,-16.70405 -14.26143,-32.66631 -24.92497,-46.84828c-18.59823,-24.73327 -30.43438,-31.50716 -45.05443,-47.78407c-16.76176,-18.66204 -39.82357,-33.95587 -48.88917,-57.1534c-3.42274,-8.75797 -3.58454,-19.09243 -0.9591,-28.10962c1.89318,-6.49837 5.40767,-13.67658 11.50255,-16.86545c3.09915,-1.62052 8.4918,-3.01116 8.4918,-3.01116c0,0 6.00982,-30.4116 28.27932,-42.09433c14.44157,-7.576 39.79855,-7.94771 45.67159,1.06948c0.71891,-10.75671 16.1446,-17.13771 24.9233,-7.49612c1.23265,-8.2917 18.78171,-14.0059 23.00677,-4.68385c0,0 4.17501,-11.68925 15.59583,-14.47706c17.95272,-4.38224 27.19179,5.02295 25.62553,6.04352c-1.56625,1.02057 4.65373,-9.8845 17.85597,-12.35441c18.8034,-3.51819 40.6459,0.15162 51.16433,13.29183c6.06319,7.57274 3.83474,17.80124 3.83474,17.80124c0,0 14.09629,-3.79697 20.13113,7.49612c2.6221,4.90557 -4.23172,20.65589 -8.20491,30.38389c-1.97992,4.84688 -76.63473,153.49105 -79.57209,152.30908c-4.10329,-1.64986 38.28067,-88.2481 36.72442,-99.66508c-1.27269,-9.34488 -13.78771,-15.57262 -23.36539,-16.68122c-21.7174,-2.51392 -25.59217,5.8544 -25.06341,5.88864c0,0 -5.18249,-12.61036 -18.50816,-12.93642c-14.70678,-0.3603 -21.75076,10.4763 -21.75076,10.4763c0,0 -10.05139,-2.31666 -21.44385,1.27c-9.93629,3.12854 -15.90274,12.31365 -15.90274,12.31365c0,0 -11.21899,-0.0538 -20.2212,4.76536c-10.28324,5.50715 -18.55987,16.45298 -18.13119,25.06911c0.98412,19.78042 31.02486,44.04906 49.20943,74.52424c18.65828,31.26914 21.84083,42.56548 26.13928,54.9313c6.67201,19.19188 3.97652,40.71346 3.97652,40.71346c0,0 9.84622,-12.38538 45.48644,-18.64247c15.54412,-2.72912 32.39762,-4.00891 43.36141,-4.79634c32.79461,-2.35741 88.05222,-0.1076 98.58732,-6.03537c6.9539,-3.91272 9.59269,-16.32419 7.16908,-25.00553c-3.34435,-11.9827 -13.87779,-20.2907 -13.87779,-20.2907c0,0 2.63378,-10.53173 1.02082,-20.06898c-1.07753,-6.36306 -5.54945,-16.45298 -8.42342,-18.5039c-10.87038,-7.76185 -16.95358,3.42037 -19.79586,-0.93742c-2.53203,-3.88337 10.83535,-5.31804 9.24241,-16.35353c-2.82393,-19.55381 -20.29626,-18.9506 -20.29626,-18.9506c0,0 1.03583,-10.75508 -5.27756,-20.52221c-3.71297,-5.7468 -7.18075,-9.94972 -18.53985,-9.28781c-13.93783,0.81189 -61.25074,85.86786 -65.77603,81.9584c-1.70804,-1.47542 83.14829,-141.93385 91.35486,-151.87542c7.80625,-9.45574 20.83503,-22.09545 40.62088,-15.48621c26.80815,8.95523 28.8331,33.31843 28.8331,33.31843c0,0 20.03772,2.58728 23.5522,16.19213c4.68042,18.11752 -4.55698,35.64649 -8.58521,42.1791c-5.88138,9.53725 -1.32773,9.99373 1.40279,8.74003c3.90313,-1.7917 16.94524,-7.49123 27.80061,-3.74806c15.13546,5.22022 17.58075,14.79171 19.73081,25.14248c3.80305,18.31641 0.95743,35.60411 0.95743,37.47895c0,1.87484 9.02056,14.66943 7.26916,42.05031c-3.01408,47.12054 -21.8475,50.85229 -41.43487,51.32345c-53.9182,1.29609 -110.90553,-1.93843 -169.40907,3.63557c-46.04189,4.38551 -59.28417,7.26461 -77.64888,28.90195c-30.83804,36.33611 -59.08234,96.61969 -76.14768,124.07719c-13.64593,21.95524 -17.61912,37.53275 -28.55288,47.17923z"/>
 
</svg>